PathFileType	4	(X/Y/Z)	C:\Users\°ÂÌØÂü\Desktop\20210112\bx_n_0_502-Unnamed.trc
DataRate	CameraRate	NumFrames	NumMarkers	Units	OrigDataRate	OrigDataStartFrame	OrigNumFrames
50.00	50.00	       7	0	mm	50.00	142	       376
Frame#	Time	
		

142	2.820	-673.22375	212.82329	1019.76807	-774.69049	269.86209	875.09235	-683.91406	-21.00804	804.50519	-677.41553	195.78343	793.74097	-763.22314	263.71939	740.38391	-783.89471	245.69460	636.97516	-771.22125	238.12276	573.31793	-713.99402	11.42726	524.99628	-721.09650	187.57138	537.68909	-797.68591	257.14157	496.39835				-641.03760	-60.95883	162.18646	-763.10150	225.23660	204.73184	-598.99878	-63.81779	156.50038	-882.75134	296.25082	144.78423	-676.83838	56.12775	160.56535	-600.65247	38.34476	166.42844	-545.82184	-10.74225	161.57144	-517.94177	-72.92817	143.09164	-590.24634	181.87775	172.51860	-640.04706	273.29816	160.58640	-601.91760	272.66287	160.45758	-548.05164	211.33202	163.56667	-528.20697	304.00070	146.09404	-213.42561	93.44201	1602.17029	-379.10065	259.32611	1350.52283	-446.00027	80.02593	1148.71985	-796.93213	182.50482	183.43726	-359.85837	-97.09851	1340.51587	-793.70288	32.22166	175.66722	-853.69824	76.04146	1109.14563	-794.19293	-57.13695	481.80408	-754.49420	66.90221	572.13251	-875.36108	-78.47275	140.46007	-771.92743	-89.37696	868.64453	-770.35956	-78.62682	751.23102	-765.03815	-45.07219	611.52222	-764.82312	-41.59716	565.87549	-723.74536	143.02858	219.44031	-757.17340	-24.17981	206.43901	-686.17120	-27.73356	1001.75793	-679.49847	156.12840	159.00801	-753.74652	129.80153	572.16022	-727.33606	67.45589	218.91216	
143	2.840	-674.20660	212.36261	1019.30682	-775.54779	269.68240	875.07947	-684.85315	-21.05971	805.03070	-678.24048	195.49785	794.14600	-763.60724	263.72647	740.59869	-784.16620	245.41862	636.98926	-771.36206	237.99641	573.35822	-713.90216	11.45734	524.97955	-721.39008	187.70795	537.69653	-797.84308	256.90121	496.36270				-641.29999	-61.09190	161.99797	-763.15509	225.65277	204.88440	-599.04645	-63.90271	156.64575	-882.66272	296.04819	144.63293	-676.85858	56.19827	160.50035	-600.66479	38.27774	166.53708	-545.96381	-10.76776	161.33064	-517.90387	-72.95454	143.08153	-590.34784	181.86040	172.43584	-639.99646	273.32071	160.73944	-602.09119	272.77747	160.50926	-548.05164	211.33202	163.56667	-528.29022	303.79080	146.21165	-211.21468	92.75465	1598.55408	-378.41693	259.26031	1348.23694	-445.63489	79.97810	1146.46143	-796.87701	182.62621	183.38980	-359.07480	-97.94740	1337.89197	-793.72510	31.92090	175.46326	-854.07513	75.95707	1109.22742	-793.87207	-57.13914	481.57635	-754.64270	66.88641	572.07526	-875.10114	-78.21302	140.22449	-772.52112	-89.63873	868.65070	-770.65479	-78.59343	750.99963	-764.97418	-45.19792	611.59015	-764.63489	-41.68264	565.65436	-723.69086	143.02330	219.50981	-757.49377	-24.25707	206.03302	-686.92371	-28.68299	1001.63940	-679.34656	156.17656	158.89157	-753.91217	129.51451	572.07898	-727.33606	67.45589	218.91216	
144	2.860	-675.06360	212.29483	1019.13000	-776.31042	269.72607	875.31006	-685.36548	-21.07827	804.80786	-679.12616	194.77782	794.13617	-764.18762	263.43463	740.44934	-784.45575	245.23076	636.90112	-772.02130	238.18710	573.41162	-714.15057	11.53367	524.94342	-721.62317	187.68970	537.84009	-798.45868	257.02277	496.44943				-641.14526	-61.15845	161.88408	-763.22369	225.57460	204.80431	-598.90894	-64.03039	156.41965	-882.71436	296.14297	144.65128	-676.92914	56.24339	160.38530	-600.68414	38.49166	166.22058	-546.04077	-10.70268	161.53648	-517.95313	-72.94166	143.09479	-590.38239	181.79878	172.56316	-640.01654	273.47104	160.65103	-602.16962	272.75873	160.31264	-548.05164	211.33202	163.56667	-528.08929	303.71759	146.35011	-209.39006	92.92580	1595.38513	-377.69604	258.34711	1345.43896	-446.04193	79.65382	1144.17615	-796.83545	182.66490	183.46051	-358.12143	-98.06375	1335.01733	-793.83289	31.99506	175.30864	-854.80237	75.86701	1109.05505	-794.00208	-57.26961	481.45892	-755.36688	66.80407	571.88599	-875.10114	-78.21302	140.22449	-773.26868	-89.80181	868.51947	-771.00623	-78.61134	750.72974	-765.08057	-45.24058	611.42834	-764.75623	-41.68221	565.45673	-723.78949	143.11885	219.43167	-757.66919	-24.49067	205.78302	-688.27203	-28.17603	1000.49188	-679.59705	156.30078	158.92627	-754.14227	129.36351	572.25305	-727.53265	67.56207	218.88080	
145	2.880	-675.83746	211.83693	1018.53607	-777.22021	269.29922	875.03931	-685.91425	-20.84347	804.64874	-679.56409	194.75906	794.04639	-764.68103	263.30261	740.18060	-784.82544	245.33380	636.97205	-772.70306	237.83043	573.68237	-714.57849	11.46854	525.12640	-722.12567	187.16586	538.00964	-798.93414	256.65002	496.49557	-876.14905	-78.79788	141.54057	-641.26099	-61.12922	161.78847	-763.22369	225.57460	204.80431	-599.04889	-64.01181	156.49756	-882.64191	296.08344	144.57135	-676.97150	56.36442	160.28410	-600.70172	38.55944	166.14359	-545.85175	-10.74983	161.32941	-517.87183	-73.16140	143.09132	-590.34784	181.86040	172.43584	-640.11517	273.27869	160.66266	-602.08582	272.63385	160.35524	-548.06012	211.28470	163.44000	-528.30182	303.70905	146.33984	-207.98978	92.13096	1592.61816	-376.83508	257.85553	1343.08179	-446.52335	79.40360	1141.75525	-796.87701	182.62621	183.38980	-357.69000	-98.44620	1332.51587	-793.81445	31.89234	175.26418	-855.65558	75.37008	1109.33850	-794.59558	-57.60448	481.37570	-755.63409	66.64967	571.58234				-774.07062	-90.05012	868.62769	-771.47845	-78.51344	750.65039	-765.81836	-45.01398	610.88715	-765.44226	-42.02555	565.54968	-723.62354	142.97308	219.63676	-757.66919	-24.49067	205.78302	-689.09277	-29.23037	1000.21747	-679.41650	155.73990	159.08743	-754.83459	129.43721	571.97943	-727.58020	67.67186	218.76846	
146	2.900	-676.67407	211.41235	1017.75916	-778.29108	268.94806	874.96021	-686.62726	-20.96541	804.71472	-680.37384	194.59442	794.28644	-765.46674	263.03406	740.07068	-785.73224	245.18227	636.85730	-772.98529	237.39624	573.53137	-714.80017	11.53874	525.14923	-722.44678	187.09245	538.06458	-799.39203	256.49512	496.62521	-875.11462	-78.31361	140.13049	-641.04266	-61.06332	162.02908	-763.25659	225.48679	204.80824	-599.14258	-64.04365	156.46333	-882.59735	296.00833	144.75085	-676.97150	56.36442	160.28410	-600.68237	38.34554	166.46010	-545.96997	-10.75731	161.54263	-517.94177	-72.92817	143.09164	-590.43677	181.80273	172.39845	-639.85455	273.27048	160.78757	-602.15887	272.47342	160.45912	-548.12640	211.31935	163.51215	-528.15771	303.94177	146.34712	-206.55270	91.96117	1589.92151	-376.58926	257.64142	1341.50439	-446.69678	78.42442	1140.29297	-797.04797	182.51463	183.42966	-356.79285	-98.90409	1329.96021	-793.81610	31.83294	175.11781	-856.08466	74.91442	1109.36475	-795.14160	-58.03731	481.39178	-756.05426	66.53495	571.40540				-774.87646	-89.98258	867.96167	-772.50336	-79.17352	750.74762	-766.27802	-45.14437	610.89954	-766.18414	-42.19697	565.26868	-723.78949	143.11885	219.43167	-757.66919	-24.49067	205.78302	-690.01923	-29.12519	999.39862	-679.59705	156.30078	158.92627	-755.50250	129.34799	571.99872	-727.58020	67.67186	218.76846	
147	2.920	-677.07440	211.16684	1017.60913	-778.69336	269.02100	875.24207	-687.56421	-21.07177	804.70929	-680.91010	194.92241	794.45831	-766.14478	262.73669	740.19012	-786.28864	245.17648	636.67743	-773.30585	236.86523	573.26056	-715.53748	11.22544	524.89337	-723.09479	187.01599	537.65088	-799.61493	256.41394	496.57437				-641.15741	-61.04306	161.92987	-763.25659	225.48679	204.80824	-599.08911	-64.04700	156.19733	-882.78497	295.97424	144.46690	-676.99261	56.36811	160.52112	-600.71033	38.49158	166.25153	-545.96381	-10.76776	161.33064	-517.94177	-72.92817	143.09164	-590.43677	181.80273	172.39845	-639.99646	273.32071	160.73944	-602.15540	272.66907	160.42900	-548.05164	211.33202	163.56667	-528.06561	303.94977	146.40004	-205.47023	91.49973	1587.62769	-376.07492	256.82666	1339.27234	-446.73016	78.27888	1138.55542	-797.04797	182.51463	183.42966	-356.47238	-99.18555	1328.27100	-793.88824	31.97403	175.19838	-856.39032	74.77383	1109.41895	-795.63782	-57.99386	481.02722	-756.71478	66.54366	571.41992	-876.12219	-78.89765	141.41621	-775.68311	-90.17152	867.89301	-773.22040	-79.27396	750.58124	-767.14893	-45.39395	610.87866	-766.60687	-42.31061	565.38269	-723.75165	143.03769	219.50230	-757.66919	-24.49067	205.78302	-690.60199	-29.28927	999.07996	-679.41650	155.73990	159.08743	-756.03809	129.04233	571.95001	-727.75555	67.65291	218.88222	
148	2.940	-678.00378	210.68059	1017.31049	-779.47638	269.01614	875.09406	-688.64795	-21.52699	804.63599	-681.91547	194.26994	794.18085	-766.57391	262.93842	740.12213	-786.98596	245.08197	636.33154	-773.40143	236.96367	573.47510	-716.24799	11.07720	524.65759	-723.34485	186.88365	537.76587	-799.68481	256.22205	496.64215				-641.04266	-61.06332	162.02908	-763.25659	225.48679	204.80824	-599.08368	-64.37394	156.18138	-882.55817	296.11798	144.62317	-676.99994	56.38116	160.50362	-600.71649	38.50373	166.23615	-545.96381	-10.76776	161.33064	-517.90387	-72.95454	143.08153	-590.43677	181.80273	172.39845	-639.94330	273.24194	160.85194	-602.09015	272.55380	160.46930	-548.05164	211.33202	163.56667	-528.03094	303.90494	146.20418	-204.39983	90.59050	1585.76208	-375.44366	256.47531	1337.95532	-446.72977	78.23831	1137.95435	-797.01013	182.56625	183.44226	-356.44421	-99.50737	1326.61743	-793.87592	31.85104	175.10167	-856.96185	74.23779	1109.37341	-795.93030	-57.92461	480.86310	-757.18024	66.32652	571.47571	-876.12219	-78.89765	141.41621	-776.83582	-90.44613	867.84467	-774.24207	-79.54714	750.08539	-767.61688	-45.67792	610.95575	-767.05682	-42.38758	565.39648	-723.78204	143.09067	219.36493	-757.73041	-24.32436	205.58549	-691.43933	-29.77835	999.30853	-679.43079	156.08611	159.11380	-756.26666	129.18394	571.88147	-727.33606	67.45589	218.91216	
